<svg viewBox="180.01 234.01 139.99 33.10755458515284" version="1.1" id="Layer_1" xmlns="http://www.w3.org/2000/svg" style="max-height: 500px" width="139.99" height="33.10755458515284">
  
  <defs>
    <style>
      .st0 {
        fill: #e8961b;
      }

      .st1 {
        fill: #0074d9;
      }
    </style>
  </defs>
  <path d="M204.2,241.12v-5.7c0-.67-.55-1.22-1.22-1.22h-9.59c-.58,0-.99.57-.8,1.11l1.99,5.86c.23.69.89,1.16,1.62,1.16h6.78c.68,0,1.22-.55,1.22-1.22Z" class="st0"/>
  <path d="M224.54,234.2h-17.9c-.59,0-1.08.48-1.08,1.07v27.37c0,.59.48,1.07,1.08,1.07h6.01c.59,0,1.08-.48,1.08-1.07v-20.31h8.01c.73,0,1.38-.47,1.62-1.16l1.99-5.86c.19-.55-.22-1.11-.8-1.11Z" class="st1"/>
  <path d="M198.99,263.74h-5.85c-.73,0-1.39-.41-1.65-1.04l-11.41-27.13c-.28-.66.26-1.37,1.03-1.37h5.4c1.05,0,1.98.59,2.36,1.48l11.2,26.62c.29.69-.27,1.43-1.07,1.43Z" class="st0"/>
  <g>
    <path d="M230.43,234.26h4.75l3.48,9.66,3.48-9.66h4.66l-6.21,15.37h-3.94l-6.21-15.37Z" class="st0"/>
    <path d="M252.48,234.15h4.09l6.52,15.37h-4.55l-1.12-2.73h-5.91l-1.09,2.73h-4.46l6.52-15.37ZM256.2,243.51l-1.71-4.34-1.73,4.34h3.43Z" class="st0"/>
    <path d="M264.28,247.26l2.36-2.81c1.51,1.2,3.19,1.83,4.97,1.83,1.14,0,1.75-.39,1.75-1.05v-.04c0-.63-.5-.98-2.58-1.46-3.26-.74-5.77-1.66-5.77-4.8v-.04c0-2.83,2.25-4.88,5.93-4.88,2.6,0,4.64.7,6.3,2.03l-2.12,2.99c-1.4-.98-2.93-1.5-4.29-1.5-1.03,0-1.53.44-1.53.98v.04c0,.7.52,1,2.65,1.48,3.52.76,5.71,1.9,5.71,4.75v.04c0,3.12-2.47,4.97-6.19,4.97-2.71,0-5.29-.85-7.17-2.53Z" class="st0"/>
    <path d="M280.6,242.83v-8.57h4.31v8.48c0,2.2,1.12,3.25,2.82,3.25s2.82-1,2.82-3.14v-8.59h4.31v8.46c0,4.93-2.82,7.09-7.18,7.09s-7.09-2.2-7.09-6.98Z" class="st0"/>
    <path d="M298.47,234.26h4.24v6.19l5.27-6.19h5.03l-5.8,6.56,5.99,8.7h-5.1l-3.85-5.67-1.55,1.72v3.95h-4.24v-15.26Z" class="st0"/>
    <path d="M315.61,234.26h4.27v15.26h-4.27v-15.26Z" class="st0"/>
  </g>
  <g>
    <path d="M236.43,256.41v7.43h-2.06v-7.43h-2.85v-1.89h7.75v1.89h-2.85Z" class="st1"/>
    <path d="M245.89,260.98h-4.98c.2.92.84,1.4,1.75,1.4.68,0,1.18-.21,1.74-.73l1.16,1.02c-.67.83-1.63,1.33-2.93,1.33-2.15,0-3.74-1.5-3.74-3.69v-.03c0-2.04,1.46-3.72,3.54-3.72,2.39,0,3.49,1.85,3.49,3.88v.03c0,.2-.01.32-.03.51ZM242.43,258.2c-.84,0-1.39.6-1.55,1.52h3.06c-.12-.91-.66-1.52-1.51-1.52Z" class="st1"/>
    <path d="M250.81,264c-2.15,0-3.73-1.65-3.73-3.69v-.03c0-2.04,1.56-3.72,3.76-3.72,1.35,0,2.19.45,2.86,1.2l-1.24,1.33c-.45-.48-.91-.79-1.63-.79-1.02,0-1.74.89-1.74,1.94v.03c0,1.09.71,1.97,1.82,1.97.68,0,1.15-.29,1.64-.76l1.19,1.2c-.69.76-1.5,1.31-2.93,1.31Z" class="st1"/>
    <path d="M259.59,263.84v-3.98c0-.96-.45-1.45-1.23-1.45s-1.27.49-1.27,1.45v3.98h-2.03v-9.72h2.03v3.6c.47-.6,1.07-1.15,2.1-1.15,1.54,0,2.43,1.01,2.43,2.65v4.62h-2.03Z" class="st1"/>
    <path d="M267.92,263.84v-3.98c0-.96-.45-1.45-1.23-1.45s-1.27.49-1.27,1.45v3.98h-2.03v-7.14h2.03v1.01c.47-.6,1.07-1.15,2.1-1.15,1.54,0,2.43,1.01,2.43,2.65v4.62h-2.03Z" class="st1"/>
    <path d="M275.23,264c-2.22,0-3.86-1.64-3.86-3.69v-.03c0-2.05,1.66-3.72,3.89-3.72s3.86,1.64,3.86,3.69v.03c0,2.05-1.66,3.72-3.89,3.72ZM277.11,260.29c0-1.05-.76-1.97-1.88-1.97s-1.86.89-1.86,1.94v.03c0,1.05.76,1.97,1.88,1.97s1.86-.89,1.86-1.94v-.03Z" class="st1"/>
    <path d="M280.68,263.84v-9.72h2.03v9.72h-2.03Z" class="st1"/>
    <path d="M288.14,264c-2.22,0-3.86-1.64-3.86-3.69v-.03c0-2.05,1.66-3.72,3.89-3.72s3.86,1.64,3.86,3.69v.03c0,2.05-1.66,3.72-3.89,3.72ZM290.02,260.29c0-1.05-.76-1.97-1.88-1.97s-1.86.89-1.86,1.94v.03c0,1.05.76,1.97,1.88,1.97s1.86-.89,1.86-1.94v-.03Z" class="st1"/>
    <path d="M296.71,266c-1.16,0-2.26-.27-3.17-.75l.69-1.52c.73.41,1.47.65,2.42.65,1.39,0,2.04-.67,2.04-1.94v-.35c-.6.72-1.26,1.16-2.34,1.16-1.67,0-3.18-1.21-3.18-3.33v-.03c0-2.13,1.54-3.33,3.18-3.33,1.11,0,1.76.47,2.31,1.07v-.93h2.03v5.53c0,2.69-1.34,3.77-4,3.77ZM298.7,259.9c0-.97-.76-1.65-1.75-1.65s-1.74.68-1.74,1.65v.03c0,.99.75,1.65,1.74,1.65s1.75-.68,1.75-1.65v-.03Z" class="st1"/>
    <path d="M302.56,255.92v-1.8h2.14v1.8h-2.14ZM302.61,263.84v-7.14h2.03v7.14h-2.03Z" class="st1"/>
    <path d="M313.21,260.98h-4.98c.2.92.84,1.4,1.75,1.4.68,0,1.18-.21,1.74-.73l1.16,1.02c-.67.83-1.63,1.33-2.93,1.33-2.15,0-3.74-1.5-3.74-3.69v-.03c0-2.04,1.46-3.72,3.54-3.72,2.39,0,3.49,1.85,3.49,3.88v.03c0,.2-.01.32-.03.51ZM309.75,258.2c-.84,0-1.39.6-1.55,1.52h3.06c-.12-.91-.66-1.52-1.51-1.52Z" class="st1"/>
    <path d="M317.26,263.98c-1,0-2.13-.33-3.07-1.08l.87-1.33c.78.56,1.59.85,2.26.85.59,0,.86-.21.86-.53v-.03c0-.44-.69-.59-1.48-.83-1-.29-2.14-.76-2.14-2.14v-.03c0-1.45,1.18-2.26,2.62-2.26.91,0,1.9.31,2.67.83l-.78,1.4c-.71-.41-1.42-.67-1.94-.67s-.75.21-.75.49v.03c0,.4.68.59,1.46.85,1,.33,2.16.81,2.16,2.12v.03c0,1.59-1.19,2.3-2.74,2.3Z" class="st1"/>
  </g>
</svg>